<svg t="1683253709317" class="icon" viewBox="0 0 1024 1024" version="1.1" xmlns="http://www.w3.org/2000/svg" p-id="9610" width="200" height="200"><path d="M512 40.96C251.904 40.96 40.96 251.904 40.96 512s210.944 471.04 471.04 471.04 471.04-210.944 471.04-471.04S772.096 40.96 512 40.96z m0 612.352a141.312 141.312 0 1 1 141.312-141.312 141.312 141.312 0 0 1-141.312 141.312z" fill="#E49536" p-id="9611"></path><path d="M380.928 277.17632a374.62016 374.62016 0 0 1 239.16544-36.61824c37.08928 6.59456 56.77056-42.53696 25.088-62.93504a322.8672 322.8672 0 0 0-497.664 258.4576c-1.51552 37.66272 49.99168 49.80736 65.92512 15.6672A374.784 374.784 0 0 1 380.928 277.17632z" fill="#FDD98F" p-id="9612"></path><path d="M575.73376 698.7776a262.59456 262.59456 0 0 1-169.3696-7.92576c-24.576-9.64608-44.89216 21.38112-25.94816 39.79264a226.28352 226.28352 0 0 0 377.67168-108.78976c6.144-25.66144-27.46368-41.12384-43.13088-19.8656a262.71744 262.71744 0 0 1-139.22304 96.78848z" fill="#E7A44B" p-id="9613"></path><path d="M596.11136 317.60384h27.93472v27.93472h-27.93472zM606.22848 356.72064h27.93472v27.93472h-27.93472zM652.05248 317.239296l18.264064 21.137408-21.13536 18.264064-18.266112-21.13536zM662.562816 277.745664l18.264064 21.137408-21.13536 18.264064-18.266112-21.13536zM683.880448 306.128896l18.264064 21.13536-21.13536 18.266112-18.266112-21.13536zM716.398592 322.390016l18.266112 21.13536-21.137408 18.264064-18.264064-21.13536zM714.09664 280.420352l11.54048 25.440256-25.440256 11.54048-11.54048-25.440256zM689.348608 249.38496l11.538432 25.440256-25.438208 11.54048-11.54048-25.440256zM652.089344 242.855936l11.54048 25.440256-25.440256 11.54048-11.54048-25.440256zM630.585344 213.116928l11.54048 25.440256-25.440256 11.54048-11.54048-25.440256zM587.040768 209.4592l11.54048 25.438208-25.440256 11.54048-11.538432-25.440256zM613.165056 178.04288l11.54048 25.438208-25.440256 11.54048-11.538432-25.440256zM657.512448 192.616448l11.54048 25.440256-25.440256 11.54048-11.54048-25.440256zM680.009728 218.290176l11.54048 25.440256-25.440256 11.538432-11.54048-25.438208zM721.856512 234.616832l11.538432 25.440256-25.438208 11.538432-11.54048-25.438208z" fill="#FEEDDD" p-id="9614"></path><path d="M701.650944 191.494144l-3.854336 27.66848-27.66848-3.856384 3.854336-27.66848zM730.7264 205.502464l-3.852288 27.66848-27.66848-3.854336 3.854336-27.66848zM666.402816 162.31424l-3.854336 27.66848L634.88 186.124288l3.856384-27.66848zM614.680576 147.46624l-3.854336 27.66848-27.66848-3.854336 3.854336-27.66848zM569.806848 148.852736l-3.854336 27.66848-27.66848-3.854336 3.854336-27.66848zM767.50848 236.46208l-19.750912 19.750912-19.75296-19.75296 19.75296-19.75296zM784.893952 273.453056l-22.315008 16.80384-16.80384-22.315008 22.315008-16.80384z" fill="#FEEDDD" opacity=".5" p-id="9615"></path><path d="M572.79488 178.04288l11.54048 25.440256-25.440256 11.54048-11.54048-25.440256zM537.430016 192.612352l11.538432 25.440256-25.438208 11.538432-11.54048-25.438208zM514.035712 166.68672l11.54048 25.440256-25.440256 11.538432-11.54048-25.438208z" fill="#FEEDDD" p-id="9616"></path><path d="M739.528704 262.219776l11.538432 25.438208-25.438208 11.54048-11.54048-25.440256z" fill="#FEEDDD" opacity=".5" p-id="9617"></path><path d="M749.002752 300.163072l11.54048 25.440256-25.440256 11.538432-11.538432-25.438208zM645.69344 358.084608l27.666432 3.854336-3.854336 27.66848-27.66848-3.856384zM625.666048 389.124096l27.66848 3.852288-3.854336 27.66848-27.66848-3.854336z" fill="#FEEDDD" p-id="9618"></path><path d="M668.182528 387.2256l27.66848 3.852288-3.854336 27.66848-27.66848-3.854336zM680.654848 354.889728l27.66848 3.854336-3.854336 27.66848-27.66848-3.856384zM587.077632 283.55584l18.264064 21.13536-21.137408 18.266112-18.264064-21.13536zM589.899776 335.72864l-18.481152 20.946944-20.946944-18.481152 18.481152-20.946944zM604.50816 371.109888l-24.68864 13.072384-13.072384-24.68864 24.68864-13.070336zM565.92384 304.750592l-24.686592 13.072384-13.072384-24.68864 24.68864-13.070336zM547.026944 331.122688l-13.094912 24.6784-24.674304-13.094912 13.092864-24.676352z" fill="#FEEDDD" p-id="9619"></path><path d="M530.878464 297.463808l-13.092864 24.676352-24.676352-13.092864 13.092864-24.676352zM540.9792 255.55968l-13.092864 24.6784-24.6784-13.094912 13.094912-24.676352z" fill="#FEEDDD" p-id="9620"></path><path d="M551.13728 221.523968l15.151104 23.468032-23.465984 15.153152-15.1552-23.47008zM576.022528 253.323264l13.072384 24.68864-24.68864 13.070336-13.072384-24.686592zM602.986496 237.694976l15.1552 23.47008-23.47008 15.151104-15.151104-23.468032zM638.588928 280.69888l-8.93952 26.537984-26.537984-8.93952 8.93952-26.537984zM731.209728 502.75328l12.529664 24.96512-24.96512 12.531712-12.531712-24.96512zM700.792832 529.33632l12.529664 24.96512-24.96512 12.531712-12.531712-24.967168zM756.668416 552.56064l-10.698752 25.8048-25.8048-10.698752 10.698752-25.8048zM796.686336 544.22528l-10.7008 25.8048-25.8048-10.7008 10.7008-25.8048zM780.877824 576.01024l-10.7008 25.8048-25.8048-10.698752 10.7008-25.8048zM780.931072 612.36224l-10.7008 25.8048-25.8048-10.698752 10.7008-25.8048zM817.463296 591.620096l-17.557504 21.727232-21.72928-17.557504 17.559552-21.72928zM834.113536 555.565056l-17.557504 21.72928-21.72928-17.559552 17.557504-21.727232zM823.22432 519.335936l-17.557504 21.72928-21.72928-17.557504 17.557504-21.72928zM840.179712 486.785024l-17.557504 21.72928-21.72928-17.559552 17.559552-21.727232zM823.883776 446.23872l-17.557504 21.72928-21.727232-17.557504 17.557504-21.72928zM752.269312 378.179584l-17.557504 21.72928-21.72928-17.557504 17.557504-21.72928zM762.400768 376.367104l-19.871744-22.994944 22.99904-19.871744 19.869696 22.996992zM785.086464 336.390144l-19.869696-22.996992 22.994944-19.871744 19.871744 22.99904zM784.11776 346.906624l27.676672-12.55424 12.55424 27.676672-27.676672 12.55424z" fill="#FEEDDD" p-id="9621"></path><path d="M817.934336 323.536896l27.676672-12.55424 12.55424 27.676672-27.676672 12.55424z" fill="#FEEDDD" opacity=".5" p-id="9622"></path><path d="M863.71328 455.46496l-17.557504 21.72928-21.727232-17.559552 17.557504-21.727232zM870.572032 501.66784l-17.557504 21.72928-21.72928-17.557504 17.559552-21.72928zM857.726976 533.293056l-17.557504 21.727232-21.72928-17.557504 17.557504-21.72928zM861.868032 578.00704l-17.555456 21.72928-21.72928-17.557504 17.557504-21.72928z" fill="#FEEDDD" p-id="9623"></path><path d="M891.338752 538.71616l-26.458112 8.964096-8.964096-26.456064 26.456064-8.966144zM890.279936 571.77088l-26.458112 8.964096-8.964096-26.456064 26.456064-8.966144zM901.59104 494.088192l-26.458112 8.964096-8.966144-26.456064 26.458112-8.966144zM891.67872 441.223168l-26.458112 8.966144-8.964096-26.458112 26.456064-8.964096zM870.30784 401.73568l-26.456064 8.966144-8.966144-26.456064 26.456064-8.966144zM879.163392 620.292096l-26.515456-8.794112 8.79616-26.513408 26.513408 8.794112zM853.788672 652.527616l-25.030656-12.402688 12.402688-25.030656 25.030656 12.402688z" fill="#FEEDDD" opacity=".5" p-id="9624"></path><path d="M845.594624 419.383296l-17.557504 21.72928-21.727232-17.557504 17.557504-21.72928zM816.695296 394.31168l-17.557504 21.72928-21.72928-17.557504 17.559552-21.72928zM843.552768 606.969856l-17.557504 21.72928-21.727232-17.557504 17.557504-21.72928zM815.497216 631.676928l-17.557504 21.72928-21.72928-17.557504 17.557504-21.72928zM717.307904 565.231616l8.966144 26.458112-26.456064 8.966144-8.966144-26.458112zM680.566784 561.252352l8.966144 26.456064-26.458112 8.966144-8.964096-26.456064zM671.27296 598.40512l8.966144 26.46016-26.456064 8.964096-8.966144-26.456064zM735.8464 595.013632l8.964096 26.456064-26.456064 8.966144-8.966144-26.456064zM757.628928 479.3856l-10.698752 25.8048-25.8048-10.698752 10.698752-25.8048zM712.351744 505.30304l-27.01312-7.122944 7.122944-27.01312 27.01312 7.122944zM687.271936 534.253568l-22.757376-16.201728 16.203776-22.757376 22.755328 16.203776z" fill="#FEEDDD" p-id="9625"></path><path d="M732.545024 471.998464l-22.626304-16.203776 16.201728-22.626304 22.626304 16.201728zM697.204736 464.912384l-27.926528-0.63488 0.63488-27.926528 27.926528 0.63488zM720.072704 435.386368l-27.928576-0.63488 0.63488-27.926528 27.926528 0.63488zM762.05056 425.58464l-27.928576-0.63488 0.63488-27.926528 27.926528 0.63488z" fill="#FEEDDD" p-id="9626"></path><path d="M795.7504 417.15712l-14.245888 24.025088-24.02304-14.245888 14.245888-24.02304zM779.70432 455.917568l-16.19968 22.755328-22.757376-16.19968 16.201728-22.757376zM805.840896 473.133056l-14.17216 24.072192-24.072192-14.174208 14.17216-24.072192zM784.22016 527.007744l-27.643904 4.009984-4.007936-27.648 27.643904-4.005888zM601.219072 714.950656l-19.625984 19.879936-19.879936-19.625984 19.625984-19.879936zM566.280192 694.66112l-19.623936 19.881984-19.879936-19.625984 19.623936-19.879936zM562.2272 755.05664l-27.87328-1.851392 1.851392-27.87328 27.87328 1.851392zM582.957056 790.255616l-27.87328-1.851392 1.851392-27.87328 27.87328 1.851392zM547.74784 785.48992l-27.87328-1.849344 1.851392-27.87328 27.87328 1.851392zM513.325056 797.198336l-27.87328-1.851392 1.851392-27.87328 27.87328 1.851392zM544.722944 825.131008l-26.2144-9.654272 9.65632-26.2144 26.2144 9.65632zM584.194048 829.333504l-26.2144-9.654272 9.65632-26.2144 26.2144 9.65632zM615.006208 807.38304l-26.212352-9.65632 9.654272-26.212352 26.2144 9.654272zM651.286528 812.988416l-26.212352-9.654272 9.654272-26.2144 26.2144 9.65632zM684.474368 784.553984l-26.2144-9.654272 9.65632-26.2144 26.2144 9.65632zM688.492544 825.212928l-26.2144-9.65632 9.65632-26.2144 26.2144 9.65632z" fill="#FEEDDD" p-id="9627"></path><path d="M646.955008 846.553088l-26.2144-9.654272 9.65632-26.2144 26.2144 9.65632z" fill="#FEEDDD" opacity=".5" p-id="9628"></path><path d="M612.882432 844.527616l-26.2144-9.65632 9.654272-26.2144 26.2144 9.65632zM571.850752 862.8224l-26.2144-9.654272 9.65632-26.2144 26.2144 9.65632z" fill="#FEEDDD" p-id="9629"></path><path d="M612.235264 879.345664l-17.03936-22.069248 22.0672-17.03936 17.03936 22.0672z" fill="#FEEDDD" opacity=".5" p-id="9630"></path><path d="M585.211904 888.315904l-16.982016-22.17984 22.17984-16.982016 16.982016 22.17984zM662.41536 874.110976l-16.984064-22.17984 22.17984-16.984064 16.984064 22.17984zM704.612352 848.830464l-17.03936-22.0672 22.0672-17.03936 17.03936 22.0672zM739.854336 814.821376l-16.982016-22.17984 22.17984-16.982016 16.982016 22.17984zM537.348096 892.823552l-0.180224-27.93472 27.93472-0.180224 0.180224 27.93472zM498.70848 879.089664l3.713024-27.68896 27.686912 3.715072-3.715072 27.68896z" fill="#FEEDDD" opacity=".5" p-id="9631"></path><path d="M716.845056 796.495872l-26.212352-9.654272 9.654272-26.2144 26.2144 9.65632zM731.324416 761.094144l-26.2144-9.654272 9.65632-26.2144 26.212352 9.65632zM538.529792 854.749184l-26.2144-9.654272 9.65632-26.2144 26.212352 9.65632zM506.14272 836.104192l-26.2144-9.654272 9.65632-26.2144 26.2144 9.65632zM537.563136 721.803264l-22.17984 16.982016-16.982016-22.17984 22.17984-16.982016zM529.53088 685.756416l-22.17984 16.982016-16.982016-22.17984 22.17984-16.982016z" fill="#FEEDDD" p-id="9632"></path><path d="M501.018624 717.344768l-22.17984 16.984064-16.982016-22.17984 22.17984-16.984064zM515.280896 748.924928l-22.17984 16.984064-16.982016-22.17984 22.17984-16.984064zM631.826432 732.473344l-27.87328-1.851392 1.851392-27.87328 27.87328 1.851392zM592.736256 697.905152l-1.92512-27.869184 27.869184-1.92512 1.92512 27.869184zM557.27104 683.436032l8.042496-26.753024 26.750976 8.042496-8.040448 26.750976zM631.601152 702.580736l8.040448-26.753024 26.753024 8.042496-8.042496 26.750976zM625.975296 670.527488l-8.368128-26.650624 26.652672-8.368128 8.368128 26.652672z" fill="#FEEDDD" p-id="9633"></path><path d="M661.26848 682.698752l-8.36608-26.652672 26.650624-8.368128 8.368128 26.652672zM684.01152 719.323136l-8.368128-26.650624 26.650624-8.368128 8.368128 26.652672z" fill="#FEEDDD" p-id="9634"></path><path d="M701.1328 750.544896l-27.346944-5.699584 5.697536-27.346944 27.348992 5.697536zM661.12512 745.846784l-26.753024-8.040448 8.042496-26.753024 26.750976 8.042496zM653.193216 776.093696l-27.346944-5.697536 5.697536-27.346944 27.346944 5.697536zM595.238912 772.94592l-12.668928-24.895488 24.897536-12.668928 12.668928 24.895488zM762.6752 654.626816l-20.897792 18.538496-18.538496-20.895744 20.895744-18.538496zM734.558208 676.327424l-20.895744 18.538496-18.538496-20.895744 20.895744-18.538496zM760.672256 706.189312l-25.286656 11.870208-11.870208-25.284608 25.286656-11.872256z" fill="#FEEDDD" p-id="9635"></path><path d="M791.046144 674.062336l-25.419776 11.732992-11.73504-25.419776 25.421824-11.73504z" fill="#FEEDDD" p-id="9636"></path><path d="M788.105216 765.902848l-25.419776 11.732992-11.732992-25.419776 25.421824-11.73504z" fill="#FEEDDD" opacity=".5" p-id="9637"></path><path d="M822.35392 671.301632l-25.286656 11.872256-11.872256-25.286656 25.286656-11.872256zM806.301696 706.16064l-25.419776 11.730944-11.732992-25.419776 25.419776-11.732992z" fill="#FEEDDD" p-id="9638"></path><path d="M849.371136 692.59264l-27.715584-3.49184 3.49184-27.715584 27.715584 3.49184zM833.98656 721.87904l-27.717632-3.489792 3.49184-27.715584 27.715584 3.49184zM803.52256 759.02976l-20.00896-19.494912 19.492864-20.00896 20.00896 19.492864z" fill="#FEEDDD" opacity=".5" p-id="9639"></path><path d="M777.433088 731.406336l-25.286656 11.872256-11.872256-25.286656 25.286656-11.872256zM707.373056 654.53056l-26.619904-8.46848 8.46848-26.619904 26.619904 8.470528zM373.92384 684.785664l-27.375616-5.586944 5.586944-27.375616 27.375616 5.586944zM374.94784 643.678208l-27.346944-5.697536 5.697536-27.346944 27.346944 5.697536zM322.054144 672.96256l-13.568-24.418304 24.416256-13.570048 13.570048 24.418304zM303.702016 709.490688l-13.570048-24.418304 24.418304-13.568 13.568 24.418304zM288.628736 677.326848l-13.570048-24.418304 24.418304-13.570048 13.570048 24.418304zM260.096 654.778368l-13.568-24.418304 24.418304-13.568 13.568 24.418304zM253.792256 696.367104l-6.109184-27.25888 27.25888-6.109184 6.109184 27.25888zM271.691776 731.813888l-6.107136-27.25888 27.25888-6.107136 6.107136 27.25888zM306.835456 745.785344l-6.107136-27.25888 27.25888-6.107136 6.107136 27.25888zM321.798144 779.290624l-6.107136-27.25888 27.25888-6.107136 6.107136 27.25888zM363.687936 791.752704l-6.109184-27.25888 27.25888-6.107136 6.109184 27.25888z" fill="#FEEDDD" p-id="9640"></path><path d="M331.702272 817.2032l-6.107136-27.25888 27.25888-6.107136 6.107136 27.25888z" fill="#FEEDDD" opacity=".5" p-id="9641"></path><path d="M291.282944 793.87648l-6.107136-27.25888 27.25888-6.107136 6.107136 27.25888zM274.47296 764.153856l-6.107136-27.25888 27.25888-6.107136 6.107136 27.25888zM236.8512 739.629056l-6.109184-27.25888 27.25888-6.109184 6.107136 27.25888z" fill="#FEEDDD" p-id="9642"></path><path d="M247.887872 786.036736l9.4208-26.298368 26.29632 9.4208-9.4208 26.29632zM222.214144 767.029248l9.496576-26.259456 26.259456 9.498624-9.498624 26.259456zM276.45952 821.813248l9.4208-26.29632 26.29632 9.4208-9.4208 26.29632zM324.028416 846.91968l9.4208-26.29632 26.298368 9.4208-9.4208 26.29632zM368.24064 854.72256l9.4208-26.298368 26.300416 9.4208-9.4208 26.298368zM403.269632 852.752384l9.4208-26.29632 26.298368 9.4208-9.4208 26.29632zM452.622336 869.752832l9.4208-26.298368 26.298368 9.4208-9.4208 26.29632zM192.9216 726.765568l23.365632-15.306752 15.306752 23.36768-23.36768 15.306752zM183.406592 687.0016l25.274368-11.89888 11.89888 25.27232-25.27232 11.89888z" fill="#FEEDDD" opacity=".5" p-id="9643"></path><path d="M371.214336 825.432064l-6.107136-27.25888 27.25888-6.107136 6.107136 27.25888zM408.834048 818.36032l-6.109184-27.25888 27.25888-6.109184 6.109184 27.25888zM445.5424 834.83648l-6.107136-27.25888 27.25888-6.107136 6.109184 27.25888zM453.341184 795.213824l-6.107136-27.25888 27.25888-6.107136 6.107136 27.25888zM225.542144 707.272704l-6.107136-27.25888 27.25888-6.107136 6.107136 27.25888zM223.627264 669.923328l-6.109184-27.25888 27.25888-6.107136 6.109184 27.25888zM221.155328 633.440256l-6.107136-27.25888 27.25888-6.109184 6.107136 27.25888z" fill="#FEEDDD" p-id="9644"></path><path d="M180.334592 639.51872l-6.107136-27.25888 27.25888-6.109184 6.107136 27.25888z" fill="#FEEDDD" opacity=".5" p-id="9645"></path><path d="M336.707584 634.27584l-26.29632-9.4208 9.4208-26.29632 26.29632 9.4208zM362.651648 607.954944l-26.29632-9.4208 9.4208-26.298368 26.29632 9.4208z" fill="#FEEDDD" p-id="9646"></path><path d="M322.625536 601.126912l-26.259456-9.498624 9.498624-26.257408 26.259456 9.496576zM303.867904 630.360064l-26.259456-9.498624 9.498624-26.259456 26.257408 9.498624zM274.808832 609.98656l-26.259456-9.496576L258.048 574.230528l26.257408 9.498624zM378.753024 719.183872l-13.568-24.418304 24.418304-13.568 13.568 24.418304zM386.691072 667.559936l22.36416-16.736256 16.738304 22.36416-22.36416 16.738304zM379.656192 629.94432l26.834944-7.76192 7.76192 26.834944-26.836992 7.76192zM403.869696 702.777344l26.834944-7.76192 7.76192 26.834944-26.834944 7.76192zM427.687936 680.792064l17.852416-21.485568 21.485568 17.850368-17.850368 21.487616zM437.651456 717.346816l17.87904-21.510144 21.508096 17.87904-17.87904 21.508096zM418.228224 756.015104l17.850368-21.487616 21.487616 17.852416-17.850368 21.485568z" fill="#FEEDDD" p-id="9647"></path><path d="M401.301504 787.294208l-10.047488-26.064896 26.064896-10.047488 10.047488 26.064896zM383.432704 751.026176l-7.76192-26.834944 26.834944-7.76192 7.76192 26.834944zM353.841152 760.887296l-10.047488-26.064896 26.064896-10.047488 10.047488 26.064896zM324.99712 710.373376l14.03904-24.152064 24.150016 14.041088-14.03904 24.150016zM284.17024 464.125952l-15.460352-23.26528 23.267328-15.4624 15.460352 23.269376zM311.15264 434.069504l-15.4624-23.26528 23.269376-15.460352 15.458304 23.267328zM252.878848 417.77152l7.499776-26.908672 26.91072 7.497728-7.499776 26.91072zM214.198272 430.88896l7.49568-26.91072 26.91072 7.499776-7.497728 26.908672zM226.023424 397.391872l7.49568-26.91072 26.91072 7.497728-7.49568 26.91072zM221.587456 361.30816l7.497728-26.91072 26.91072 7.497728-7.499776 26.91072zM188.57984 386.093056l14.80704-23.744512 23.744512 14.80704-14.80704 23.742464zM175.69792 424.265728l14.802944-23.689216 23.689216 14.802944-14.802944 23.691264zM190.898176 458.89536l14.802944-23.689216 23.691264 14.802944-14.802944 23.689216zM178.952192 492.93312l14.80704-23.744512 23.742464 14.80704-14.804992 23.742464zM200.077312 531.185664l14.80704-23.744512 23.742464 14.80704-14.80704 23.742464zM159.430656 526.925824l14.804992-23.744512 23.744512 14.80704-14.80704 23.744512zM146.0224 482.174976l14.800896-23.689216 23.691264 14.802944-14.802944 23.689216zM154.978304 449.247232l14.802944-23.691264 23.691264 14.802944-14.804992 23.691264zM145.412096 405.34016l14.802944-23.691264 23.689216 14.802944-14.802944 23.689216z" fill="#FEEDDD" p-id="9648"></path><path d="M120.717312 446.040064l25.176064-12.10368 12.101632 25.18016-25.178112 12.099584zM117.741568 413.118464l25.178112-12.101632 12.099584 25.178112L129.8432 438.29248zM115.89632 491.593728l25.176064-12.10368 12.101632 25.18016-25.178112 12.099584zM132.163584 542.8736l25.178112-12.101632 12.099584 25.178112-25.176064 12.099584zM158.150656 579.469312l25.176064-12.101632 12.101632 25.178112-25.178112 12.101632zM123.15648 365.324288l27.383808 5.523456-5.521408 27.38176-27.38176-5.521408zM144.744448 328.92928l26.259456 9.220096-9.218048 26.259456-26.259456-9.218048z" fill="#FEEDDD" opacity=".5" p-id="9649"></path><path d="M180.781056 560.830464l14.802944-23.689216 23.689216 14.802944-14.802944 23.689216zM212.488192 582.20544l14.802944-23.691264 23.689216 14.802944-14.802944 23.691264zM160.098304 374.36416l14.802944-23.691264 23.691264 14.804992-14.802944 23.689216z" fill="#FEEDDD" p-id="9650"></path><path d="M183.304192 348.135424l14.802944-23.689216 23.689216 14.802944-14.802944 23.689216z" fill="#FEEDDD" opacity=".5" p-id="9651"></path><path d="M290.441216 400.4352l-12.101632-25.178112 25.178112-12.099584 12.101632 25.176064zM327.395328 399.939584l-12.101632-25.178112 25.178112-12.101632 12.101632 25.178112z" fill="#FEEDDD" p-id="9652"></path><path d="M302.280704 365.592576l-12.101632-25.178112 25.178112-12.101632 12.101632 25.178112zM268.455936 373.086208l-12.101632-25.176064 25.178112-12.101632 12.101632 25.178112zM259.66592 492.140544l7.542784-26.816512 26.81856 7.542784-7.542784 26.816512zM302.637056 464.881664l27.674624 3.801088-3.801088 27.674624-27.674624-3.79904zM324.03456 427.554816l24.549376 13.328384-13.330432 24.549376-24.549376-13.328384zM290.11968 496.41472l24.549376 13.328384-13.330432 24.549376-24.549376-13.328384zM328.781824 499.5072l27.799552-2.752512 2.750464 27.799552-27.799552 2.750464zM338.8416 538.079232l27.797504-2.750464 2.750464 27.799552-27.799552 2.750464z" fill="#FEEDDD" p-id="9653"></path><path d="M303.446016 529.625088l27.797504-2.750464 2.750464 27.797504-27.797504 2.750464zM262.948864 544.413696l27.799552-2.750464 2.750464 27.799552-27.799552 2.750464z" fill="#FEEDDD" p-id="9654"></path><path d="M228.95616 554.676224l11.157504-25.608192 25.61024 11.155456-11.157504 25.61024zM241.719296 516.476928l13.330432-24.549376 24.549376 13.328384-13.330432 24.549376zM213.753856 502.56896l11.155456-25.61024 25.61024 11.157504-11.157504 25.61024zM228.84352 449.140736l27.099136-7.262208 7.262208 27.09504-27.09504 7.264256zM438.140928 224.024576l-24.549376-13.328384 13.328384-24.549376 24.549376 13.328384z" fill="#FEEDDD" p-id="9655"></path><path d="M447.920128 184.836096l-24.549376-13.330432 13.328384-24.549376 24.549376 13.330432z" fill="#FEEDDD" opacity=".5" p-id="9656"></path><path d="M388.794368 197.695488l-5.965824-27.2896 27.291648-5.965824 5.965824 27.2896zM360.738816 227.366912l-5.965824-27.291648 27.291648-5.963776 5.965824 27.2896z" fill="#FEEDDD" p-id="9657"></path><path d="M355.55328 192.251904l-5.965824-27.291648 27.291648-5.965824 5.965824 27.291648zM180.224 679.538688l-5.963776-27.291648 27.2896-5.963776 5.965824 27.2896zM316.708864 200.404992l1.9968-27.86304 27.86304 1.9968-1.9968 27.86304z" fill="#FEEDDD" opacity=".5" p-id="9658"></path><path d="M323.659776 239.489024l1.9968-27.86304 27.86304 1.9968-1.9968 27.86304zM353.284096 262.99392l1.9968-27.86304 27.86304 1.9968-1.9968 27.86304zM357.96992 299.401216l1.9968-27.86304 27.86304 1.9968-1.9968 27.86304zM394.496 323.38944l1.9968-27.86304 27.86304 1.9968-1.9968 27.86304zM356.558848 338.569216l1.9968-27.865088 27.86304 1.998848-1.9968 27.86304zM324.517888 304.57856l1.9968-27.86304 27.86304 1.9968-1.9968 27.865088zM316.99968 271.273984l1.998848-27.86304 27.86304 1.998848-1.998848 27.86304zM288.024576 236.941312l1.9968-27.86304 27.86304 1.9968-1.9968 27.86304zM285.24544 284.499968l16.5888-22.474752 22.4768 16.5888-16.5888 22.474752z" fill="#FEEDDD" p-id="9659"></path><path d="M230.49216 328.368128l-9.590784-26.23488 26.23488-9.592832 9.592832 26.236928zM231.471104 282.365952l-9.590784-26.23488 26.236928-9.592832 9.590784 26.23488z" fill="#FEEDDD" opacity=".5" p-id="9660"></path><path d="M251.447296 294.22592l-9.590784-26.236928 26.23488-9.590784 9.592832 26.23488z" fill="#FEEDDD" p-id="9661"></path><path d="M187.645952 319.760384l-9.590784-26.23488 26.23488-9.592832 9.592832 26.236928zM217.06752 243.613696l-9.590784-26.236928 26.236928-9.590784 9.590784 26.23488z" fill="#FEEDDD" opacity=".5" p-id="9662"></path><path d="M267.206656 256.79872l16.5888-22.474752 22.4768 16.5888-16.5888 22.474752zM262.713344 315.000832l16.5888-22.474752 22.4768 16.5888-16.5888 22.474752zM315.129856 331.776l16.5888-22.4768 22.4768 16.5888-16.5888 22.474752zM337.512448 417.642496l16.482304-22.347776 22.347776 16.482304-16.482304 22.347776zM347.701248 368.183296l16.5888-22.4768 22.474752 16.5888-16.5888 22.4768z" fill="#FEEDDD" p-id="9663"></path><path d="M250.66496 213.694464l26.785792-7.933952 7.933952 26.783744-26.785792 7.933952zM138.770432 644.01408l27.656192-4.190208 4.190208 27.656192-27.656192 4.190208z" fill="#FEEDDD" opacity=".5" p-id="9664"></path><path d="M392.019968 357.812224l1.9968-27.86304 27.86304 1.9968-1.9968 27.86304zM430.057472 361.887744l1.9968-27.86304 27.86304 1.9968-1.9968 27.86304z" fill="#FEEDDD" p-id="9665"></path><path d="M287.5392 204.382208l1.9968-27.86304 27.86304 1.998848-1.9968 27.86304zM128.47104 625.362944l1.998848-27.86304 27.86304 1.9968-1.9968 27.865088zM413.906944 164.806656l-22.4768-16.5888 16.5888-22.474752 22.4768 16.5888zM446.306304 147.06688l-22.474752-16.5888 16.5888-22.4768 22.474752 16.5888zM810.960896 299.399168l-22.474752-16.5888 16.5888-22.474752 22.474752 16.5888zM381.66528 150.925312l-22.474752-16.5888 16.5888-22.474752 22.4768 16.5888z" fill="#FEEDDD" opacity=".5" p-id="9666"></path><path d="M429.83424 258.26304l-5.965824-27.291648 27.2896-5.963776 5.965824 27.2896zM452.245504 211.07712l26.23488-9.590784 9.592832 26.23488-26.23488 9.592832zM456.278016 173.010944l27.93472 0.290816-0.292864 27.93472-27.93472-0.292864zM458.5472 249.747456l27.93472 0.292864-0.294912 27.93472-27.932672-0.294912zM487.7312 235.552768l23.281664-15.439872 15.439872 23.281664-23.281664 15.437824zM374.147072 380.735488l23.279616-15.437824 15.439872 23.281664-23.281664 15.437824zM465.231872 334.473216l23.279616-15.437824 15.439872 23.279616-23.281664 15.439872z" fill="#FEEDDD" p-id="9667"></path><path d="M478.830592 149.018624l23.279616-15.439872 15.439872 23.281664-23.281664 15.437824zM508.770304 111.69792l23.281664-15.437824 15.437824 23.279616-23.281664 15.439872z" fill="#FEEDDD" opacity=".5" p-id="9668"></path><path d="M458.397696 297.211904l23.281664-15.437824 15.437824 23.281664-23.279616 15.437824zM431.792128 329.9328l-2.117632-27.8528 27.8528-2.121728 2.11968 27.854848zM425.140224 290.105344l0.290816-27.93472 27.93472 0.292864-0.292864 27.93472zM393.938944 290.97984l-2.11968-27.856896 27.854848-2.117632 2.11968 27.8528zM380.844032 234.33216l20.39808-19.08736 19.08736 20.39808-20.39808 19.08736z" fill="#FEEDDD" p-id="9669"></path></svg>